<svg width="30" height="30" viewBox="0 0 30 30" fill="none" xmlns="http://www.w3.org/2000/svg">
<path fill-rule="evenodd" clip-rule="evenodd" d="M14.6667 0C10.615 0 7.33333 3.28167 7.33333 7.33333C7.33333 11.385 10.615 14.6667 14.6667 14.6667C18.7183 14.6667 22 11.385 22 7.33333C22 3.28167 18.7183 0 14.6667 0ZM18.5167 7.33333C18.5167 5.20666 16.7934 3.48333 14.6667 3.48333C12.54 3.48333 10.8167 5.20666 10.8167 7.33333C10.8167 9.45999 12.54 11.1833 14.6667 11.1833C16.7934 11.1833 18.5167 9.45999 18.5167 7.33333ZM25.85 23.8333C25.85 22.66 20.1117 19.9833 14.6667 19.9833C9.22169 19.9833 3.48335 22.66 3.48335 23.8333V25.85H25.85V23.8333ZM0 23.8333C0 18.9567 9.77167 16.5 14.6667 16.5C19.5617 16.5 29.3333 18.9567 29.3333 23.8333V29.3333H0V23.8333Z" fill="#F44609"/>
</svg>
